<?xml version="1.0" encoding="utf-8"?>
<!-- Generator: Adobe Illustrator 23.0.3, SVG Export Plug-In . SVG Version: 6.00 Build 0)  -->
<svg version="1.1" id="Layer_1" xmlns="http://www.w3.org/2000/svg" xmlns:xlink="http://www.w3.org/1999/xlink" x="0px"
     y="0px"
     viewBox="0 0 96 32" style="enable-background:new 0 0 96 32;" xml:space="preserve">
<style type="text/css">
	.st0 {
        fill: #F5EA19;
        stroke: #201D1E;
        stroke-width: 0.1752;
    }

    .st1 {
        fill: url(#SVGID_1_);
        stroke: #201D1E;
        stroke-width: 0.1752;
    }

    .st2 {
        fill: #201D1E;
    }

    .st3 {
        fill: url(#SVGID_2_);
    }

    .st4 {
        fill: #888D97;
    }

    .st5 {
        fill: #34B04A;
        stroke: #201D1E;
        stroke-width: 0.156;
    }

    .st6 {
        fill: url(#SVGID_3_);
    }

    .st7 {
        fill: #4C416D;
    }

    .st8 {
        fill: url(#SVGID_4_);
    }

    .st9 {
        fill: #F5EA19;
    }

    .st10 {
        fill: url(#SVGID_5_);
        stroke: #201D1E;
        stroke-width: 0.156;
    }

    .st11 {
        fill: #201D1E;
        stroke: #201D1E;
        stroke-width: 7.824622e-02;
    }

    .st12 {
        enable-background: new;
    }

    .st13 {
        fill: #FFFFFF;
    }
</style>
    <g>
	<g>
		<path class="st0" d="M27.8,16c0,7.3-5.9,13.3-13.3,13.3S1.3,23.3,1.3,16S7.2,2.7,14.6,2.7S27.8,8.7,27.8,16z"/>

        <linearGradient id="SVGID_1_" gradientUnits="userSpaceOnUse" x1="14.55" y1="5.8121" x2="14.55" y2="26.1692"
                        gradientTransform="matrix(1 0 0 -1 0 31.89)">
			<stop offset="5.618000e-03" style="stop-color:#FFFFFF"/>
            <stop offset="0.147" style="stop-color:#FCE5CB"/>
            <stop offset="0.3043" style="stop-color:#F9CB98"/>
            <stop offset="0.4596" style="stop-color:#F6B66D"/>
            <stop offset="0.6095" style="stop-color:#F5A54D"/>
            <stop offset="0.7526" style="stop-color:#F39A35"/>
            <stop offset="0.886" style="stop-color:#F29227"/>
            <stop offset="1" style="stop-color:#F29022"/>
		</linearGradient>
        <path class="st1" d="M24.8,16c0,5.7-4.6,10.3-10.2,10.3S4.3,21.7,4.3,16S8.9,5.7,14.5,5.7S24.8,10.3,24.8,16z"/>
        <g>
			<polygon class="st2"
                     points="3.8,11.7 3.8,12.1 4.2,12.2 3.8,12.3 3.7,12.7 3.5,12.4 3.1,12.5 3.4,12.2 3.1,11.8 3.5,12 			"/>
            <polygon class="st2"
                     points="3.4,12.9 3.4,13.3 3.8,13.4 3.4,13.5 3.3,13.9 3.1,13.6 2.7,13.7 3,13.4 2.7,13 3.1,13.2 			"/>
            <polygon class="st2"
                     points="3.2,14.2 3.1,14.6 3.5,14.7 3.1,14.8 3.1,15.2 2.9,14.9 2.5,15 2.7,14.7 2.5,14.3 2.9,14.5 			"/>
            <polygon class="st2"
                     points="3,15.7 3,16.1 3.4,16.2 3,16.3 3,16.7 2.7,16.4 2.3,16.5 2.6,16.2 2.4,15.8 2.8,16 			"/>
            <polygon class="st2"
                     points="3.3,17 3.3,17.4 3.6,17.5 3.2,17.6 3.2,18.1 3,17.7 2.6,17.8 2.9,17.5 2.6,17.2 3,17.3 			"/>
		</g>
        <g>
			<polygon class="st2" points="25.5,11.7 25.5,12.1 25.1,12.2 25.5,12.3 25.5,12.7 25.8,12.4 26.2,12.5 25.9,12.2 26.1,11.8
				25.7,12 			"/>
            <polygon class="st2" points="25.9,12.9 25.9,13.3 25.5,13.4 25.9,13.5 25.9,13.9 26.2,13.6 26.6,13.7 26.3,13.4 26.5,13
				26.1,13.2 			"/>
            <polygon class="st2" points="26.1,14.2 26.1,14.6 25.7,14.7 26.2,14.8 26.2,15.2 26.4,14.9 26.8,15 26.5,14.7 26.8,14.3
				26.4,14.5 			"/>
            <polygon class="st2" points="26.3,15.7 26.3,16.1 25.9,16.2 26.3,16.3 26.3,16.7 26.5,16.4 27,16.5 26.7,16.2 26.9,15.8 26.5,16
							"/>
            <polygon class="st2" points="26,17 26,17.4 25.6,17.5 26,17.6 26.1,18.1 26.3,17.7 26.7,17.8 26.4,17.5 26.6,17.2 26.3,17.3
				"/>
		</g>
        <g>

				<linearGradient id="SVGID_2_" gradientUnits="userSpaceOnUse" x1="17.4551" y1="12.64" x2="10.9392"
                                y2="12.64" gradientTransform="matrix(1 0 0 -1 0 31.89)">
				<stop offset="5.618000e-03" style="stop-color:#2C367C"/>
                    <stop offset="7.977473e-02" style="stop-color:#303A7F"/>
                    <stop offset="0.1611" style="stop-color:#3E4687"/>
                    <stop offset="0.2459" style="stop-color:#545A95"/>
                    <stop offset="0.333" style="stop-color:#7276A8"/>
                    <stop offset="0.4211" style="stop-color:#999AC1"/>
                    <stop offset="0.5" style="stop-color:#C3C0DB"/>
                    <stop offset="0.5671" style="stop-color:#A1A1C6"/>
                    <stop offset="0.6629" style="stop-color:#777BAB"/>
                    <stop offset="0.7564" style="stop-color:#575D97"/>
                    <stop offset="0.8456" style="stop-color:#3F4788"/>
                    <stop offset="0.9288" style="stop-color:#313A7F"/>
                    <stop offset="1" style="stop-color:#2C367C"/>
			</linearGradient>
            <path class="st3" d="M11.1,21.6c0,0-0.2,1.8,1.7,1.8c1.7,0,2.5,0,2.5,0s1.5,0,1.9-1.6v-6.7c0,0-0.9,0.8-3.2,0.8
				c-1.8-0.1-2.3-0.2-2.8-0.8L11.1,21.6z"/>
            <path class="st4"
                  d="M15.7,17.4l2.4,5.5c0,0,0.2,0.5,0.7,0.5c0.4,0.1,0.8,0.1,1,0L17,17.1C17,17.1,16.3,17.7,15.7,17.4z"/>
            <polygon class="st5" points="19.8,23.3 22.6,20.4 19.9,14.3 17,17.1 			"/>
            <path class="st2" d="M19.7,21l0.6,1.2l1.7-1.8c0.2-0.2,0.3-0.6,0.2-0.9L21,16.9l-1.8,1.8l-0.5-1.1c0,0-0.2-0.3,0.1-0.6
				c0.2-0.2,1.2-1.1,1.2-1.1s0.2-0.2,0.5-0.1l-0.4-0.9l-1.9,1.7c0,0-0.4,0.3-0.2,1c0.3,0.7,0.9,1.7,0.9,1.7s0.2,0.4,0.6,0.2
				c0.3-0.3,1.3-1.3,1.3-1.3s0.2-0.2,0.3,0c0.1,0.3,0.6,1.3,0.6,1.3s0.1,0.2-0.1,0.5c-0.2,0.2-1.1,1.2-1.1,1.2s-0.2,0.2-0.4,0.1
				C19.8,21.1,19.7,21.1,19.7,21z"/>
            <g>
				<path class="st4" d="M21.1,18.4c0.1,0.3,0.5,1.1,0.5,1.1s0.1,0.2-0.1,0.5c-0.2,0.2-1.1,1.2-1.1,1.2s-0.2,0.2-0.4,0
					c-0.1-0.2-0.3-0.4-0.4-0.6l-0.1-0.3c0,0,0-0.1,0.2-0.3C20,19.6,21.1,18.4,21.1,18.4z"/>
                <path class="st4"
                      d="M20.6,15.8c-0.3-0.1-0.5,0.1-0.5,0.1s-1,0.9-1.2,1.2c-0.3,0.3-0.1,0.6-0.1,0.6l0.5,1.1l1.8-1.9L20.6,15.8z"
                />
			</g>
            <g>

					<linearGradient id="SVGID_3_" gradientUnits="userSpaceOnUse" x1="11.0546" y1="16.89" x2="17.0793"
                                    y2="16.89" gradientTransform="matrix(1 0 0 -1 0 31.89)">
					<stop offset="5.618000e-03" style="stop-color:#E5262B"/>
                        <stop offset="6.265496e-02" style="stop-color:#E84045"/>
                        <stop offset="0.3669" style="stop-color:#F8C8CA"/>
                        <stop offset="0.5" style="stop-color:#FFFFFF"/>
                        <stop offset="0.5738" style="stop-color:#FBDBDC"/>
                        <stop offset="0.7839" style="stop-color:#EF7B7E"/>
                        <stop offset="0.9305" style="stop-color:#E83E42"/>
                        <stop offset="1" style="stop-color:#E5262B"/>
				</linearGradient>
                <path class="st6" d="M11.1,15c0,0.6,1.5,1,3,1s3-0.3,3-1c0-0.6-1.5-1-3-1S11.1,14.3,11.1,15z M11.4,15c0-0.3,1.1-0.7,2.7-0.7
					c1.7,0,2.7,0.4,2.7,0.7s-1.1,0.7-2.7,0.7C12.4,15.6,11.4,15.2,11.4,15z"/>
			</g>
            <g>
				<g>
					<path class="st7"
                          d="M11.4,15c0-0.3,1.1-0.7,2.7-0.7s2.7,0.4,2.7,0.7s-1.1,0.7-2.7,0.7C12.4,15.6,11.4,15.2,11.4,15z"/>
				</g>
			</g>
            <g>

					<linearGradient id="SVGID_4_" gradientUnits="userSpaceOnUse" x1="12.8248" y1="19.1956" x2="15.3928"
                                    y2="19.1956" gradientTransform="matrix(1 0 0 -1 0 31.89)">
					<stop offset="1.123600e-02" style="stop-color:#FFFFFF"/>
                        <stop offset="0.1182" style="stop-color:#FFF7EC"/>
                        <stop offset="0.3949" style="stop-color:#FEE5C1"/>
                        <stop offset="0.6439" style="stop-color:#FDD8A2"/>
                        <stop offset="0.854" style="stop-color:#FDD08F"/>
                        <stop offset="1" style="stop-color:#FDCD88"/>
				</linearGradient>
                <path class="st8"
                      d="M15.4,9.8c0,0-0.3,0.8-1.4,0.9c-1,0-1.2,0.1-1.2,0.9c0,0.8,0,3.9,0,3.9s1.1,0.2,2.6,0V9.8z"/>
                <path class="st9" d="M13.9,6.8c0,0,0.9,0.1,1.4,1.4c0.3,1.2,0,1.8-0.4,2.1c-0.4,0.2-0.4,0-0.5-0.1s-0.2-0.6-0.5-0.3
					c-0.3,0.2-0.1,0.8-0.1,0.9c-0.4,0.1-0.6-0.7-0.7-1.1c0-0.3,0-0.8,0.4-1.3C14,7.8,14.1,7.1,13.9,6.8z"/>
                <path class="st2"
                      d="M13.7,10.7h0.5V10c0,0,0.2-0.2,0.1-0.4c-0.2-0.2-0.5-0.1-0.5,0.3C13.7,10.2,13.7,10.6,13.7,10.7z"/>
			</g>

            <linearGradient id="SVGID_5_" gradientUnits="userSpaceOnUse" x1="18.7443" y1="17.192" x2="16.0177"
                            y2="14.4654" gradientTransform="matrix(1 0 0 -1 0 31.89)">
				<stop offset="5.618000e-03" style="stop-color:#D3CDE6"/>
                <stop offset="0.2474" style="stop-color:#B7B2D7"/>
                <stop offset="0.5464" style="stop-color:#9A97C8"/>
                <stop offset="0.8075" style="stop-color:#8986BF"/>
                <stop offset="1" style="stop-color:#8380BC"/>
			</linearGradient>
            <path class="st10" d="M17.9,14.9c0,0,1.1,0.1,2-0.6c-2.2,2.1-2.9,2.8-2.9,2.8s-0.5,0.5-1,0.4c-0.4-0.1-0.5-0.4-0.3-0.5
				C16,16.7,17.9,14.9,17.9,14.9z"/>
		</g>
        <g>
			<path class="st2" d="M4.8,10.9c-0.1,0.2-0.5,0.2-0.9,0c-0.5-0.2-0.7-0.5-0.6-0.8c0.1-0.2,0.5-0.2,0.9,0
				C4.7,10.4,4.9,10.7,4.8,10.9L4.8,10.9z M4.6,10.8c0.1-0.2-0.1-0.4-0.5-0.6c-0.3-0.1-0.6-0.2-0.7,0c-0.1,0.2,0.1,0.4,0.5,0.6
				C4.2,11,4.5,11,4.6,10.8L4.6,10.8z"/>
            <path class="st2"
                  d="M3.7,9.4l0.6,0.4l0.2-0.4L4,9.1V9l1.4,0.9H5.3L4.7,9.5L4.5,9.9l0.6,0.4L5,10.4L3.7,9.5V9.4z"/>
            <path class="st2" d="M5.6,8.3C5.5,8.2,5.2,8,5.1,7.9l0,0C5.2,8,5.4,8.2,5.6,8.3L6,9L5.9,9.1L5.2,8.7C5,8.6,4.9,8.5,4.7,8.4l0,0
				C4.8,8.5,5,8.7,5.2,8.9l0.5,0.5l0,0l-1.2-1l0.1-0.1l0.7,0.4C5.5,8.8,5.6,8.9,5.8,9l0,0C5.6,8.7,5.5,8.6,5.4,8.4L4.9,7.8L5,7.7
				l1.3,1L6.2,8.8L5.6,8.3z"/>
            <path class="st2" d="M6.6,8.4L6.1,7.9L5.2,7.5l0.1-0.1l0.4,0.2C5.8,7.7,5.9,7.7,6,7.8l0,0C5.9,7.7,5.9,7.6,5.8,7.5L5.6,7.1L5.7,7
				l0.4,0.9L6.6,8.4L6.6,8.4z"/>
            <path class="st2" d="M6.1,6.6L6.1,6.6l1,1l0.3-0.3l0.1,0.1L7.2,7.8L6.1,6.6z"/>
            <path class="st2" d="M7.9,7.2c-0.2,0.1-0.5,0-0.8-0.4C6.8,6.4,6.7,6,6.9,5.9c0.2-0.2,0.5,0,0.8,0.4C8.1,6.7,8.1,7.1,7.9,7.2
				L7.9,7.2z M7.8,7.1C8,7,7.9,6.7,7.7,6.4C7.5,6.1,7.2,5.9,7,6C6.9,6.1,7,6.5,7.2,6.7C7.4,7,7.7,7.2,7.8,7.1L7.8,7.1z"/>
            <path class="st2" d="M7.5,5.5c0-0.1,0.1-0.1,0.2-0.2s0.2-0.1,0.3,0c0.1,0,0.2,0.1,0.2,0.2C8.4,5.7,8.4,5.9,8.3,6l0,0
				c0.1,0,0.2,0.1,0.3,0.2c0.1,0.2,0.2,0.3,0.3,0.3L8.8,6.6c0,0-0.1-0.1-0.3-0.3C8.4,6.1,8.3,6.1,8.2,6.1L8.1,6.2l0.4,0.6L8.4,6.9
				L7.5,5.5z M8,6.1L8.1,6c0.1-0.1,0.1-0.2,0-0.4C8,5.5,7.9,5.4,7.8,5.5L7.7,5.6L8,6.1z"/>
            <path class="st2" d="M8.3,5.1C8.3,5,8.4,5,8.5,4.9c0.2-0.1,0.3-0.1,0.4,0C9.1,5,9.2,5.1,9.3,5.4C9.4,5.6,9.5,5.8,9.5,6
				S9.4,6.3,9.2,6.4c-0.1,0-0.1,0-0.2,0.1L8.3,5.1z M9.1,6.3h0.1c0.2-0.1,0.2-0.4,0-0.8C9,5.1,8.8,4.9,8.6,5C8.5,5,8.5,5.1,8.5,5.1
				L9.1,6.3z"/>
            <path class="st2" d="M9.8,6.4c0-0.1-0.1-0.4-0.2-0.6l0.1-0.1C9.8,5.9,9.9,6.2,9.8,6.4L9.8,6.4z"/>
            <path class="st2" d="M9.7,4.3l0.6,1.5h-0.1L9.7,4.3L9.7,4.3z"/>
            <path class="st2" d="M10.5,5.7L10,4.2h0.1l0.5,0.7C10.8,5,10.9,5.1,11,5.3l0,0c-0.1-0.2-0.1-0.4-0.2-0.6L10.6,4h0.1l0.5,1.5h-0.1
				l-0.5-0.7c-0.1-0.1-0.2-0.3-0.3-0.4l0,0c0.1,0.2,0.1,0.4,0.2,0.6l0.2,0.6L10.5,5.7z"/>
            <path class="st2" d="M12,5.2c0,0-0.1,0.1-0.2,0.1c-0.3,0.1-0.5-0.2-0.7-0.7c-0.1-0.5,0-0.9,0.3-0.9c0.1,0,0.2,0,0.2,0v0.2
				c-0.1,0-0.1,0-0.2,0c-0.2,0.1-0.3,0.3-0.2,0.7s0.3,0.6,0.5,0.5c0.1,0,0.1-0.1,0.2-0.1L12,5.2z"/>
            <path class="st2" d="M11.9,3.7c0.1,0,0.1-0.1,0.2-0.1c0.1,0,0.2,0,0.3,0.1s0.1,0.2,0.1,0.3c0,0.2,0,0.4-0.1,0.4l0,0
				c0.1,0,0.1,0.1,0.2,0.3c0.1,0.2,0.1,0.4,0.2,0.4h-0.1c0,0-0.1-0.2-0.1-0.4c-0.1-0.2-0.1-0.3-0.2-0.3h-0.1l0.1,0.7h-0.1L11.9,3.7z
				 M12.2,4.4h0.1c0.1,0,0.2-0.2,0.2-0.3c0-0.2-0.1-0.3-0.3-0.3c-0.1,0-0.1,0-0.1,0L12.2,4.4z"/>
            <path class="st2" d="M13.3,4.3h-0.4L13,4.9h0.4v0.2l-0.5,0.1l-0.2-1.6l0.5-0.1v0.2h-0.4l0.1,0.5h0.4V4.3z"/>
            <path class="st2" d="M13.7,4.5V5h-0.1l0.2-1.6h0.1L14.3,5h-0.1l-0.1-0.5H13.7z M14,4.3l-0.1-0.5c0-0.1,0-0.2-0.1-0.3l0,0
				c0,0.1,0,0.2,0,0.3l-0.1,0.5H14z"/>
            <path class="st2" d="M14.4,4.7c0.1,0.1,0.1,0.1,0.2,0.1c0.1,0,0.2-0.1,0.2-0.3c0-0.1,0-0.2-0.2-0.3c-0.2-0.1-0.2-0.2-0.2-0.5
				s0.1-0.4,0.3-0.4c0.1,0,0.2,0,0.2,0.1v0.2c0,0-0.1-0.1-0.2-0.1c-0.1,0-0.2,0.1-0.2,0.2c0,0.2,0.1,0.2,0.2,0.3
				C14.9,4.2,15,4.3,15,4.6C15,4.8,14.9,5,14.6,5c-0.1,0-0.2,0-0.2-0.1L14.4,4.7z"/>
            <path class="st2" d="M15.7,4.3h-0.4v0.6h0.4v0.2h-0.5l0.1-1.6h0.5v0.2h-0.4v0.5h0.4L15.7,4.3z"/>
            <path class="st2" d="M17,4.5c0-0.2,0.1-0.5,0.1-0.7l0,0c0,0.2-0.1,0.4-0.2,0.6l-0.3,0.7h-0.1V4.3c0-0.2,0-0.4,0-0.6l0,0
				c0,0.2-0.1,0.5-0.1,0.7l-0.1,0.7h-0.1l0.4-1.6h0.2v0.8c0,0.2,0,0.4,0,0.5l0,0c0.1-0.2,0.1-0.3,0.2-0.5l0.3-0.7h0.2L17,5.3h-0.1
				L17,4.5z"/>
            <path class="st2"
                  d="M17.9,4.7l-0.4-0.1l-0.1,0.6l0.4,0.1v0.2l-0.5-0.1l0.4-1.6l0.5,0.1v0.2L17.7,4l-0.1,0.5L18,4.6L17.9,4.7z"/>
            <path class="st2" d="M18.8,4.1l-0.5,1.5h-0.1l0.5-1.5H18.8z"/>
            <path class="st2" d="M18.5,5.7l0.6-1.5l0.1,0.1v0.9c0,0.2,0,0.4,0,0.5l0,0c0.1-0.2,0.1-0.4,0.2-0.6l0.3-0.6h0.1L19.1,6H19V5.1
				c0-0.2,0-0.4,0-0.6l0,0c-0.1,0.2-0.1,0.4-0.2,0.6L18.5,5.7L18.5,5.7z"/>
            <path class="st2" d="M20.3,4.8l0.1,0.1L20,5.6l0,0c0.1,0,0.1-0.1,0.1-0.1L20.8,5l0.1,0.1l-0.6,0.4l-0.1,1L20,6.4l0.1-0.8L20,5.7
				l-0.3,0.5l-0.1-0.1L20.3,4.8z"/>
            <path class="st2" d="M20.2,6.5l0.9-1.4l0.1,0.1L21,6.1c0,0.2-0.1,0.4-0.1,0.5l0,0C21,6.4,21.1,6.2,21.2,6l0.4-0.6l0.1,0.1
				l-0.9,1.4l-0.1-0.1L20.9,6c0-0.2,0.1-0.4,0.1-0.5l0,0c-0.1,0.2-0.2,0.3-0.3,0.6L20.2,6.5L20.2,6.5z"/>
            <path class="st2" d="M21.3,7.3c-0.2-0.2-0.1-0.5,0.2-0.9C21.7,6,22.1,5.8,22.3,6c0.2,0.2,0.1,0.5-0.2,0.9
				C21.8,7.3,21.5,7.4,21.3,7.3L21.3,7.3z M21.4,7.2c0.2,0.1,0.4-0.1,0.6-0.3c0.2-0.3,0.3-0.6,0.2-0.7c-0.2-0.2-0.5,0-0.7,0.3
				C21.3,6.7,21.2,7,21.4,7.2L21.4,7.2z"/>
            <path class="st2" d="M21.9,7.7l0.9-1.3l0.1,0.1l-0.5,0.7c-0.1,0.2-0.2,0.3-0.3,0.5l0,0c0.1-0.1,0.3-0.2,0.4-0.4l0.6-0.5l0.1,0.1
				l-0.5,0.7c-0.1,0.2-0.2,0.3-0.3,0.4l0,0c0.1-0.1,0.3-0.2,0.4-0.4l0.6-0.5l0.1,0.1l-1.3,1l-0.1-0.1l0.5-0.7
				C22.8,7.2,22.9,7.1,23,7l0,0c-0.1,0.1-0.2,0.2-0.4,0.3L21.9,7.7L21.9,7.7z"/>
            <path class="st2" d="M23.8,7.4L23.8,7.4l-1,1.1l0.3,0.3H23l-0.4-0.4L23.8,7.4z"/>
            <path class="st2" d="M23.9,8.8l-0.2-0.3l-0.5,0.4l0.3,0.3l-0.1,0.1L23,8.9l1.3-1l0.3,0.4l-0.1,0.1l-0.2-0.3l-0.4,0.3l0.2,0.3
				L23.9,8.8z"/>
            <path class="st2" d="M24.8,8.6c0.1,0.1,0.1,0.1,0.2,0.2c0,0.1,0.1,0.2,0,0.4c-0.1,0.1-0.2,0.3-0.4,0.4c-0.2,0.1-0.4,0.2-0.6,0.2
				s-0.3-0.1-0.4-0.2c0-0.1-0.1-0.1-0.1-0.2L24.8,8.6z M23.7,9.5c0,0,0,0.1,0.1,0.1c0.1,0.2,0.4,0.2,0.8-0.1C24.9,9.3,25,9,24.9,8.8
				c0-0.1-0.1-0.1-0.1-0.1L23.7,9.5z"/>
            <path class="st2" d="M24.4,10.8c-0.1,0-0.2-0.1-0.2-0.2c-0.1-0.1-0.1-0.3,0-0.4c0.1-0.1,0.2-0.3,0.5-0.4c0.4-0.2,0.8-0.2,1,0
				c0.1,0.1,0.1,0.2,0.1,0.2l-0.2,0.1c0-0.1,0-0.1,0-0.2c-0.1-0.2-0.4-0.2-0.7,0c-0.4,0.2-0.5,0.4-0.4,0.6c0,0.1,0.1,0.1,0.1,0.1
				l0.4-0.2l-0.1-0.2l0.1-0.1l0.2,0.3L24.4,10.8z"/>
            <path class="st2" d="M25.3,11.1l-0.2-0.3L24.6,11l0.2,0.4l-0.2,0.1L24.4,11l1.4-0.7l0.2,0.5l-0.2,0.1l-0.2-0.3l-0.5,0.2
				L25.3,11.1L25.3,11.1z"/>
		</g>
        <g>
			<path class="st11" d="M3.5,22.2c-0.1,0.1-0.2,0-0.3-0.1l-0.3-0.7c-0.1-0.1,0-0.2,0.1-0.3l0.5-0.2l0.2,0.3l-0.4,0.2l0.2,0.4
				l0.4-0.2L4,20.7c0-0.1,0.1-0.1,0.1-0.1l0.4-0.2c0.1-0.1,0.2,0,0.3,0.1l0.3,0.7c0.1,0.1,0,0.2-0.1,0.3l-0.4,0.2l-0.2-0.3l0.4-0.2
				l-0.2-0.4L4.3,21l-0.2,0.9C4.1,22,4,22,4,22.1L3.5,22.2z"/>
            <path class="st11" d="M4.5,23.6c-0.1,0.1-0.2,0-0.3-0.1l-0.5-0.7c-0.1-0.1-0.1-0.2,0-0.3l1.4-1c0.1-0.1,0.2,0,0.3,0.1L6,22.3
				c0.1,0.1,0.1,0.2,0,0.3L4.5,23.6z M4.3,23.2l1.3-0.9l-0.3-0.4L4,22.8L4.3,23.2z"/>
            <path class="st11" d="M5.6,24.9c-0.1,0.1-0.2,0.1-0.3,0l-0.5-0.6c-0.1-0.1-0.1-0.2,0-0.3l1.4-1.3L6.5,23l-1.4,1.2l0.3,0.4
				l1.4-1.2L7,23.6L5.6,24.9z"/>
            <path class="st11" d="M7.8,24.7l-0.3-0.3l-1.2,1.4L6,25.5l1.2-1.4l-0.3-0.3l0.2-0.2L8,24.5L7.8,24.7z"/>
            <path class="st11"
                  d="M8,27l-0.3-0.2L8.2,26l-0.4-0.3l-0.5,0.8L7,26.3l1.2-1.8l0.3,0.2L8,25.4l0.4,0.3L8.8,25l0.3,0.2L8,27z"/>
            <path class="st11" d="M9.3,27.7l-0.9-0.5l1-1.9l0.9,0.5l-0.1,0.3l-0.6-0.3l-0.3,0.6l0.5,0.3l-0.1,0.2l-0.5-0.3l-0.3,0.6l0.6,0.3
				L9.3,27.7z"/>
            <path class="st11" d="M10.9,28.3l-0.4-0.1l0.1-0.4l-0.4-0.2L10,28l-0.4-0.1l0,0l1.2-1.8l0.4,0.1L10.9,28.3z M10.7,27.5l0.2-1
				l-0.5,0.8L10.7,27.5z"/>
            <path class="st11" d="M12.5,28.5c0,0.1-0.1,0.2-0.3,0.1l-0.7-0.2c-0.1,0-0.2-0.1-0.2-0.2l0.1-0.5l0.4,0.1l-0.1,0.4l0.5,0.1
				l0.1-0.4l-0.6-0.7c0-0.1-0.1-0.1,0-0.2l0.1-0.5c0-0.1,0.1-0.2,0.3-0.1l0.7,0.2c0.1,0,0.2,0.1,0.2,0.2l-0.1,0.5l-0.4-0.1l0.1-0.4
				L12,26.7L11.9,27l0.6,0.7c0,0.1,0.1,0.1,0,0.2V28.5z"/>
            <path class="st11" d="M14.2,27h-0.4l-0.2,1.8h-0.4l0.2-1.8H13v-0.3l1.2,0.1L14.2,27z"/>
            <path class="st11" d="M16.4,28.5c0,0.1-0.1,0.2-0.2,0.2l-0.8,0.1c-0.2,0-0.2,0-0.2-0.2L15,26.7h0.4l0.2,1.8h0.5l-0.2-1.8h0.4
				L16.4,28.5z"/>
            <path class="st11" d="M18.2,28.3l-0.3,0.1L17,27.3c0,0.1,0.1,0.1,0.1,0.1l0.3,1.2L17,28.7l-0.5-2.1l0.3-0.1l0.9,1.1
				c0-0.1-0.1-0.1-0.1-0.1l-0.3-1.1l0.4-0.1L18.2,28.3z"/>
            <path class="st11" d="M19,28.1l-0.4,0.1l-0.7-2l0.4-0.1L19,28.1z"/>
            <path class="st11" d="M19.7,25.4l0.4,2.1l-0.3,0.2L18.5,26l0.3-0.2l0.9,1.2c0,0,0,0.1,0.1,0.2c0,0,0-0.1-0.1-0.2l-0.4-1.4
				L19.7,25.4z"/>
            <path class="st11" d="M21.8,26.6l-0.9,0.6l-1.1-1.8l0.9-0.5l0.1,0.2l-0.6,0.3l0.3,0.5l0.5-0.3l0.1,0.2l-0.5,0.3l0.3,0.6l0.6-0.4
				L21.8,26.6z"/>
            <path class="st11" d="M23.2,25.6l-0.3,0.2L22,25.3l-0.1-0.1l0.3-0.2l-0.4-0.5l-0.4,0.3l1.2,1.4l-0.3,0.2L21,24.7l0.8-0.6
				c0.1-0.1,0.2-0.1,0.3,0l0.5,0.6c0.1,0.1,0.1,0.1,0,0.2c0,0-0.1,0.1-0.2,0.2L23.2,25.6z"/>
            <path class="st11" d="M24.1,24.3c0.1,0.1,0.1,0.2,0,0.3l-0.5,0.5c-0.1,0.1-0.2,0.1-0.3,0l-0.4-0.4l0.3-0.3l0.3,0.3l0.3-0.3
				l-0.3-0.3l-1,0.1c-0.1,0-0.1,0-0.2-0.1L22.1,24c-0.1-0.1-0.1-0.2,0-0.3l0.5-0.5c0.1-0.1,0.2-0.1,0.3,0l0.3,0.3L23,23.7l-0.3-0.3
				l-0.3,0.3l0.3,0.3l1-0.1c0.1,0,0.1,0,0.2,0.1L24.1,24.3z"/>
            <path class="st11" d="M24.8,23.8l-0.2,0.3l-1.7-1.3l0.2-0.3L24.8,23.8z"/>
            <path class="st11" d="M24.2,21.5L24,21.8l1.5,1l-0.2,0.3l-1.5-1l-0.2,0.3l-0.2-0.2l0.7-1L24.2,21.5z"/>
            <path class="st11" d="M24.6,20.1l0.6,0.7c0.1,0.1,0.2,0.2,0.3,0.3l0.7,0.3L26,21.7l-0.7-0.3c-0.1,0-0.1,0-0.2,0s-0.2,0-0.2,0
				L24,21.3l0,0l0.2-0.3l1,0.1l-0.7-0.7L24.6,20.1L24.6,20.1z"/>
		</g>
	</g>
        <g class="st12">
		<path class="st13" d="M39.8,22.9c0,1-0.5,1.5-1.4,1.5h-4.7c-0.9,0-1.4-0.5-1.4-1.5v-3.9h2.3v3.3h2.9v-3.2l-4.7-4.6
			c-0.3-0.3-0.5-0.8-0.5-1.3V9.7c0-1,0.5-1.5,1.4-1.5h4.7c0.9,0,1.4,0.5,1.4,1.5v3.6h-2.3v-3.1h-2.9v2.9l4.7,4.6
			c0.3,0.3,0.5,0.8,0.5,1.3V22.9z"/>
            <path class="st13" d="M48.2,24.4h-6.5V8.2h6.4v2.1H44v4.7h3.5v2.1H44v5.1h4.2V24.4z"/>
            <path class="st13"
                  d="M57.6,22.9c0,1-0.5,1.5-1.4,1.5h-5c-0.9,0-1.4-0.5-1.4-1.5V8.2h2.3v14.1h3.2V8.2h2.3V22.9z"/>
            <path class="st13"
                  d="M71.6,22.9c0,1-0.5,1.5-1.4,1.5h-5c-1,0-1.4-0.5-1.4-1.5V8.2h2.3v14.1h3.2V8.2h2.3V22.9z"/>
            <path class="st13" d="M83,24.4h-2.3v-8c0-0.4,0-1,0.1-1.8l-2,8.3h-1.2l-2-8.3c0.1,0.8,0.1,1.4,0.1,1.8v8h-2.3V8.2h2.2l2.5,9
			c0,0.1,0,0.3,0.1,0.7c0-0.2,0-0.4,0.1-0.7l2.5-9H83V24.4z"/>
            <path class="st13" d="M92.4,22.9c0,1-0.5,1.5-1.4,1.5h-4.7c-0.9,0-1.4-0.5-1.4-1.5v-3.9h2.3v3.3H90v-3.2l-4.7-4.6
			c-0.3-0.3-0.5-0.8-0.5-1.3V9.7c0-1,0.5-1.5,1.4-1.5H91c1,0,1.4,0.5,1.4,1.5v3.6H90v-3.1h-2.9v2.9l4.7,4.6c0.3,0.3,0.5,0.8,0.5,1.3
			V22.9z"/>
	</g>
</g>
</svg>
