<?xml version="1.0" encoding="utf-8"?>
<!-- Generator: Adobe Illustrator 23.0.3, SVG Export Plug-In . SVG Version: 6.00 Build 0)  -->
<svg version="1.1" id="Layer_1" xmlns="http://www.w3.org/2000/svg" xmlns:xlink="http://www.w3.org/1999/xlink" x="0px"
     y="0px"
     viewBox="0 0 96 32" style="enable-background:new 0 0 96 32;" xml:space="preserve">
<style type="text/css">
	.st0 {
        fill: #F5EA19;
        stroke: #201D1E;
        stroke-width: 0.1752;
    }

    .st1 {
        fill: url(#SVGID_1_);
        stroke: #201D1E;
        stroke-width: 0.1752;
    }

    .st2 {
        fill: #201D1E;
    }

    .st3 {
        fill: url(#SVGID_2_);
    }

    .st4 {
        fill: #888D97;
    }

    .st5 {
        fill: #34B04A;
        stroke: #201D1E;
        stroke-width: 0.156;
    }

    .st6 {
        fill: url(#SVGID_3_);
    }

    .st7 {
        fill: #4C416D;
    }

    .st8 {
        fill: url(#SVGID_4_);
    }

    .st9 {
        fill: #F5EA19;
    }

    .st10 {
        fill: url(#SVGID_5_);
        stroke: #201D1E;
        stroke-width: 0.156;
    }

    .st11 {
        fill: #201D1E;
        stroke: #201D1E;
        stroke-width: 7.824622e-02;
    }

    .st12 {
        fill: #3F414B;
    }
</style>
    <g>
	<path class="st0" d="M28.8,16c0,7.3-5.9,13.3-13.3,13.3S2.3,23.3,2.3,16S8.2,2.7,15.6,2.7S28.8,8.7,28.8,16z"/>

        <linearGradient id="SVGID_1_" gradientUnits="userSpaceOnUse" x1="15.55" y1="5.8121" x2="15.55" y2="26.1692"
                        gradientTransform="matrix(1 0 0 -1 0 31.89)">
		<stop offset="5.618000e-03" style="stop-color:#FFFFFF"/>
            <stop offset="0.147" style="stop-color:#FCE5CB"/>
            <stop offset="0.3043" style="stop-color:#F9CB98"/>
            <stop offset="0.4596" style="stop-color:#F6B66D"/>
            <stop offset="0.6095" style="stop-color:#F5A54D"/>
            <stop offset="0.7526" style="stop-color:#F39A35"/>
            <stop offset="0.886" style="stop-color:#F29227"/>
            <stop offset="1" style="stop-color:#F29022"/>
	</linearGradient>
        <path class="st1" d="M25.8,16c0,5.7-4.6,10.3-10.2,10.3S5.3,21.7,5.3,16S9.9,5.7,15.5,5.7S25.8,10.3,25.8,16z"/>
        <g>
		<polygon class="st2"
                 points="4.8,11.7 4.8,12.1 5.2,12.2 4.8,12.3 4.7,12.7 4.5,12.4 4.1,12.5 4.4,12.2 4.1,11.8 4.5,12 		"/>
            <polygon class="st2"
                     points="4.4,12.9 4.4,13.3 4.8,13.4 4.4,13.5 4.3,13.9 4.1,13.6 3.7,13.7 4,13.4 3.7,13 4.1,13.2 		"/>
            <polygon class="st2"
                     points="4.2,14.2 4.1,14.6 4.5,14.7 4.1,14.8 4.1,15.2 3.9,14.9 3.5,15 3.7,14.7 3.5,14.3 3.9,14.5 		"/>
            <polygon class="st2"
                     points="4,15.7 4,16.1 4.4,16.2 4,16.3 4,16.7 3.7,16.4 3.3,16.5 3.6,16.2 3.4,15.8 3.8,16 		"/>
            <polygon class="st2"
                     points="4.3,17 4.3,17.4 4.6,17.5 4.2,17.6 4.2,18.1 4,17.7 3.6,17.8 3.9,17.5 3.6,17.2 4,17.3 		"/>
	</g>
        <g>
		<polygon class="st2" points="26.5,11.7 26.5,12.1 26.1,12.2 26.5,12.3 26.5,12.7 26.8,12.4 27.2,12.5 26.9,12.2 27.1,11.8
			26.7,12 		"/>
            <polygon class="st2" points="26.9,12.9 26.9,13.3 26.5,13.4 26.9,13.5 26.9,13.9 27.2,13.6 27.6,13.7 27.3,13.4 27.5,13
			27.1,13.2 		"/>
            <polygon class="st2" points="27.1,14.2 27.1,14.6 26.7,14.7 27.2,14.8 27.2,15.2 27.4,14.9 27.8,15 27.5,14.7 27.8,14.3
			27.4,14.5 		"/>
            <polygon class="st2" points="27.3,15.7 27.3,16.1 26.9,16.2 27.3,16.3 27.3,16.7 27.5,16.4 28,16.5 27.7,16.2 27.9,15.8 27.5,16
					"/>
            <polygon class="st2"
                     points="27,17 27,17.4 26.6,17.5 27,17.6 27.1,18.1 27.3,17.7 27.7,17.8 27.4,17.5 27.6,17.2 27.3,17.3 		"/>
	</g>
        <g>

			<linearGradient id="SVGID_2_" gradientUnits="userSpaceOnUse" x1="18.4551" y1="12.64" x2="11.9392" y2="12.64"
                            gradientTransform="matrix(1 0 0 -1 0 31.89)">
			<stop offset="5.618000e-03" style="stop-color:#2C367C"/>
                <stop offset="7.977473e-02" style="stop-color:#303A7F"/>
                <stop offset="0.1611" style="stop-color:#3E4687"/>
                <stop offset="0.2459" style="stop-color:#545A95"/>
                <stop offset="0.333" style="stop-color:#7276A8"/>
                <stop offset="0.4211" style="stop-color:#999AC1"/>
                <stop offset="0.5" style="stop-color:#C3C0DB"/>
                <stop offset="0.5671" style="stop-color:#A1A1C6"/>
                <stop offset="0.6629" style="stop-color:#777BAB"/>
                <stop offset="0.7564" style="stop-color:#575D97"/>
                <stop offset="0.8456" style="stop-color:#3F4788"/>
                <stop offset="0.9288" style="stop-color:#313A7F"/>
                <stop offset="1" style="stop-color:#2C367C"/>
		</linearGradient>
            <path class="st3" d="M12.1,21.6c0,0-0.2,1.8,1.7,1.8c1.7,0,2.5,0,2.5,0s1.5,0,1.9-1.6v-6.7c0,0-0.9,0.8-3.2,0.8
			c-1.8-0.1-2.3-0.2-2.8-0.8L12.1,21.6z"/>
            <path class="st4"
                  d="M16.7,17.4l2.4,5.5c0,0,0.2,0.5,0.7,0.5c0.4,0.1,0.8,0.1,1,0L18,17.1C18,17.1,17.3,17.7,16.7,17.4z"/>
            <polygon class="st5" points="20.8,23.3 23.6,20.4 20.9,14.3 18,17.1 		"/>
            <path class="st2" d="M20.7,21l0.6,1.2l1.7-1.8c0.2-0.2,0.3-0.6,0.2-0.9L22,16.9l-1.8,1.8l-0.5-1.1c0,0-0.2-0.3,0.1-0.6
			c0.2-0.2,1.2-1.1,1.2-1.1s0.2-0.2,0.5-0.1l-0.4-0.9l-1.9,1.7c0,0-0.4,0.3-0.2,1c0.3,0.7,0.9,1.7,0.9,1.7s0.2,0.4,0.6,0.2
			c0.3-0.3,1.3-1.3,1.3-1.3s0.2-0.2,0.3,0c0.1,0.3,0.6,1.3,0.6,1.3s0.1,0.2-0.1,0.5c-0.2,0.2-1.1,1.2-1.1,1.2s-0.2,0.2-0.4,0.1
			C20.8,21.1,20.7,21.1,20.7,21z"/>
            <g>
			<path class="st4" d="M22.1,18.4c0.1,0.3,0.5,1.1,0.5,1.1s0.1,0.2-0.1,0.5c-0.2,0.2-1.1,1.2-1.1,1.2s-0.2,0.2-0.4,0
				c-0.1-0.2-0.3-0.4-0.4-0.6l-0.1-0.3c0,0,0-0.1,0.2-0.3C21,19.6,22.1,18.4,22.1,18.4z"/>
                <path class="st4"
                      d="M21.6,15.8c-0.3-0.1-0.5,0.1-0.5,0.1s-1,0.9-1.2,1.2c-0.3,0.3-0.1,0.6-0.1,0.6l0.5,1.1l1.8-1.9L21.6,15.8z"
                />
		</g>
            <g>

				<linearGradient id="SVGID_3_" gradientUnits="userSpaceOnUse" x1="12.0546" y1="16.89" x2="18.0793"
                                y2="16.89" gradientTransform="matrix(1 0 0 -1 0 31.89)">
				<stop offset="5.618000e-03" style="stop-color:#E5262B"/>
                    <stop offset="6.265496e-02" style="stop-color:#E84045"/>
                    <stop offset="0.3669" style="stop-color:#F8C8CA"/>
                    <stop offset="0.5" style="stop-color:#FFFFFF"/>
                    <stop offset="0.5738" style="stop-color:#FBDBDC"/>
                    <stop offset="0.7839" style="stop-color:#EF7B7E"/>
                    <stop offset="0.9305" style="stop-color:#E83E42"/>
                    <stop offset="1" style="stop-color:#E5262B"/>
			</linearGradient>
                <path class="st6" d="M12.1,15c0,0.6,1.5,1,3,1s3-0.3,3-1c0-0.6-1.5-1-3-1S12.1,14.3,12.1,15z M12.4,15c0-0.3,1.1-0.7,2.7-0.7
				c1.7,0,2.7,0.4,2.7,0.7s-1.1,0.7-2.7,0.7C13.4,15.6,12.4,15.2,12.4,15z"/>
		</g>
            <g>
			<g>
				<path class="st7"
                      d="M12.4,15c0-0.3,1.1-0.7,2.7-0.7c1.6,0,2.7,0.4,2.7,0.7s-1.1,0.7-2.7,0.7C13.4,15.6,12.4,15.2,12.4,15z"/>
			</g>
		</g>
            <g>

				<linearGradient id="SVGID_4_" gradientUnits="userSpaceOnUse" x1="13.8248" y1="19.1956" x2="16.3928"
                                y2="19.1956" gradientTransform="matrix(1 0 0 -1 0 31.89)">
				<stop offset="1.123600e-02" style="stop-color:#FFFFFF"/>
                    <stop offset="0.1182" style="stop-color:#FFF7EC"/>
                    <stop offset="0.3949" style="stop-color:#FEE5C1"/>
                    <stop offset="0.6439" style="stop-color:#FDD8A2"/>
                    <stop offset="0.854" style="stop-color:#FDD08F"/>
                    <stop offset="1" style="stop-color:#FDCD88"/>
			</linearGradient>
                <path class="st8"
                      d="M16.4,9.8c0,0-0.3,0.8-1.4,0.9c-1,0-1.2,0.1-1.2,0.9c0,0.8,0,3.9,0,3.9s1.1,0.2,2.6,0V9.8z"/>
                <path class="st9" d="M14.9,6.8c0,0,0.9,0.1,1.4,1.4c0.3,1.2,0,1.8-0.4,2.1c-0.4,0.2-0.4,0-0.5-0.1s-0.2-0.6-0.5-0.3
				c-0.3,0.2-0.1,0.8-0.1,0.9c-0.4,0.1-0.6-0.7-0.7-1.1c0-0.3,0-0.8,0.4-1.3C15,7.8,15.1,7.1,14.9,6.8z"/>
                <path class="st2"
                      d="M14.7,10.7h0.5V10c0,0,0.2-0.2,0.1-0.4c-0.2-0.2-0.5-0.1-0.5,0.3C14.7,10.2,14.7,10.6,14.7,10.7z"/>
		</g>

            <linearGradient id="SVGID_5_" gradientUnits="userSpaceOnUse" x1="19.7443" y1="17.192" x2="17.0177"
                            y2="14.4654" gradientTransform="matrix(1 0 0 -1 0 31.89)">
			<stop offset="5.618000e-03" style="stop-color:#D3CDE6"/>
                <stop offset="0.2474" style="stop-color:#B7B2D7"/>
                <stop offset="0.5464" style="stop-color:#9A97C8"/>
                <stop offset="0.8075" style="stop-color:#8986BF"/>
                <stop offset="1" style="stop-color:#8380BC"/>
		</linearGradient>
            <path class="st10" d="M18.9,14.9c0,0,1.1,0.1,2-0.6c-2.2,2.1-2.9,2.8-2.9,2.8s-0.5,0.5-1,0.4c-0.4-0.1-0.5-0.4-0.3-0.5
			C17,16.7,18.9,14.9,18.9,14.9z"/>
	</g>
        <g>
		<path class="st2" d="M5.8,10.9c-0.1,0.2-0.5,0.2-0.9,0c-0.5-0.2-0.7-0.5-0.6-0.8c0.1-0.2,0.5-0.2,0.9,0
			C5.7,10.4,5.9,10.7,5.8,10.9L5.8,10.9z M5.6,10.8c0.1-0.2-0.1-0.4-0.5-0.6c-0.3-0.1-0.6-0.2-0.7,0c-0.1,0.2,0.1,0.4,0.5,0.6
			C5.2,11,5.5,11,5.6,10.8L5.6,10.8z"/>
            <path class="st2"
                  d="M4.7,9.4l0.6,0.4l0.2-0.4L5,9.1V9l1.4,0.9H6.3L5.7,9.5L5.5,9.9l0.6,0.4L6,10.4L4.7,9.5V9.4z"/>
            <path class="st2" d="M6.6,8.3C6.5,8.2,6.2,8,6.1,7.9l0,0C6.2,8,6.4,8.2,6.6,8.3L7,9L6.9,9.1L6.2,8.7C6,8.6,5.9,8.5,5.7,8.4l0,0
			C5.8,8.5,6,8.7,6.2,8.9l0.5,0.5l0,0l-1.2-1l0.1-0.1l0.7,0.4C6.5,8.8,6.6,8.9,6.8,9l0,0C6.6,8.7,6.5,8.6,6.4,8.4L5.9,7.8L6,7.7
			l1.3,1L7.2,8.8L6.6,8.3z"/>
            <path class="st2" d="M7.6,8.4L7.1,7.9L6.2,7.5l0.1-0.1l0.4,0.2C6.8,7.7,6.9,7.7,7,7.8l0,0C6.9,7.7,6.9,7.6,6.8,7.5L6.6,7.1L6.7,7
			l0.4,0.9L7.6,8.4L7.6,8.4z"/>
            <path class="st2" d="M7.1,6.6L7.1,6.6l1,1l0.3-0.3l0.1,0.1L8.2,7.8L7.1,6.6z"/>
            <path class="st2" d="M8.9,7.2c-0.2,0.1-0.5,0-0.8-0.4C7.8,6.4,7.7,6,7.9,5.9c0.2-0.2,0.5,0,0.8,0.4C9.1,6.7,9.1,7.1,8.9,7.2
			L8.9,7.2z M8.8,7.1C9,7,8.9,6.7,8.7,6.4C8.5,6.1,8.2,5.9,8,6C7.9,6.1,8,6.5,8.2,6.7C8.4,7,8.7,7.2,8.8,7.1L8.8,7.1z"/>
            <path class="st2" d="M8.5,5.5c0-0.1,0.1-0.1,0.2-0.2s0.2-0.1,0.3,0c0.1,0,0.2,0.1,0.2,0.2C9.4,5.7,9.4,5.9,9.3,6l0,0
			c0.1,0,0.2,0.1,0.3,0.2c0.1,0.2,0.2,0.3,0.3,0.3L9.8,6.6c0,0-0.1-0.1-0.3-0.3C9.4,6.1,9.3,6.1,9.2,6.1L9.1,6.2l0.4,0.6L9.4,6.9
			L8.5,5.5z M9,6.1L9.1,6c0.1-0.1,0.1-0.2,0-0.4C9,5.5,8.9,5.4,8.8,5.5L8.7,5.6L9,6.1z"/>
            <path class="st2" d="M9.3,5.1C9.3,5,9.4,5,9.5,4.9c0.2-0.1,0.3-0.1,0.4,0c0.2,0.1,0.3,0.2,0.4,0.5c0.1,0.2,0.2,0.4,0.2,0.6
			s-0.1,0.3-0.3,0.4c-0.1,0-0.1,0-0.2,0.1L9.3,5.1z M10.1,6.3h0.1c0.2-0.1,0.2-0.4,0-0.8C10,5.1,9.8,4.9,9.6,5
			C9.5,5,9.5,5.1,9.5,5.1L10.1,6.3z"/>
            <path class="st2" d="M10.8,6.4c0-0.1-0.1-0.4-0.2-0.6l0.1-0.1C10.8,5.9,10.9,6.2,10.8,6.4L10.8,6.4z"/>
            <path class="st2" d="M10.7,4.3l0.6,1.5h-0.1L10.7,4.3L10.7,4.3z"/>
            <path class="st2" d="M11.5,5.7L11,4.2h0.1l0.5,0.7C11.8,5,11.9,5.1,12,5.3l0,0c-0.1-0.2-0.1-0.4-0.2-0.6L11.6,4h0.1l0.5,1.5h-0.1
			l-0.5-0.7c-0.1-0.1-0.2-0.3-0.3-0.4l0,0c0.1,0.2,0.1,0.4,0.2,0.6l0.2,0.6L11.5,5.7z"/>
            <path class="st2" d="M13,5.2c0,0-0.1,0.1-0.2,0.1c-0.3,0.1-0.5-0.2-0.7-0.7c-0.1-0.5,0-0.9,0.3-0.9c0.1,0,0.2,0,0.2,0v0.2
			c-0.1,0-0.1,0-0.2,0c-0.2,0.1-0.3,0.3-0.2,0.7s0.3,0.6,0.5,0.5c0.1,0,0.1-0.1,0.2-0.1L13,5.2z"/>
            <path class="st2" d="M12.9,3.7c0.1,0,0.1-0.1,0.2-0.1c0.1,0,0.2,0,0.3,0.1s0.1,0.2,0.1,0.3c0,0.2,0,0.4-0.1,0.4l0,0
			c0.1,0,0.1,0.1,0.2,0.3c0.1,0.2,0.1,0.4,0.2,0.4h-0.1c0,0-0.1-0.2-0.1-0.4c-0.1-0.2-0.1-0.3-0.2-0.3h-0.1l0.1,0.7h-0.1L12.9,3.7z
			 M13.2,4.4h0.1c0.1,0,0.2-0.2,0.2-0.3c0-0.2-0.1-0.3-0.3-0.3c-0.1,0-0.1,0-0.1,0L13.2,4.4z"/>
            <path class="st2" d="M14.3,4.3h-0.4L14,4.9h0.4v0.2l-0.5,0.1l-0.2-1.6l0.5-0.1v0.2h-0.4l0.1,0.5h0.4V4.3z"/>
            <path class="st2" d="M14.7,4.5V5h-0.1l0.2-1.6h0.1L15.3,5h-0.1l-0.1-0.5H14.7z M15,4.3l-0.1-0.5c0-0.1,0-0.2-0.1-0.3l0,0
			c0,0.1,0,0.2,0,0.3l-0.1,0.5H15z"/>
            <path class="st2" d="M15.4,4.7c0.1,0.1,0.1,0.1,0.2,0.1c0.1,0,0.2-0.1,0.2-0.3c0-0.1,0-0.2-0.2-0.3c-0.2-0.1-0.2-0.2-0.2-0.5
			s0.1-0.4,0.3-0.4c0.1,0,0.2,0,0.2,0.1v0.2c0,0-0.1-0.1-0.2-0.1c-0.1,0-0.2,0.1-0.2,0.2c0,0.2,0.1,0.2,0.2,0.3
			C15.9,4.2,16,4.3,16,4.6C16,4.8,15.9,5,15.6,5c-0.1,0-0.2,0-0.2-0.1L15.4,4.7z"/>
            <path class="st2" d="M16.7,4.3h-0.4v0.6h0.4v0.2h-0.5l0.1-1.6h0.5v0.2h-0.4v0.5h0.4L16.7,4.3z"/>
            <path class="st2" d="M18,4.5c0-0.2,0.1-0.5,0.1-0.7l0,0c0,0.2-0.1,0.4-0.2,0.6l-0.3,0.7h-0.1V4.3c0-0.2,0-0.4,0-0.6l0,0
			c0,0.2-0.1,0.5-0.1,0.7l-0.1,0.7h-0.1l0.4-1.6h0.2v0.8c0,0.2,0,0.4,0,0.5l0,0c0.1-0.2,0.1-0.3,0.2-0.5l0.3-0.7h0.2L18,5.3h-0.1
			L18,4.5z"/>
            <path class="st2"
                  d="M18.9,4.7l-0.4-0.1l-0.1,0.6l0.4,0.1v0.2l-0.5-0.1l0.4-1.6l0.5,0.1v0.2L18.7,4l-0.1,0.5L19,4.6L18.9,4.7z"/>
            <path class="st2" d="M19.8,4.1l-0.5,1.5h-0.1l0.5-1.5H19.8z"/>
            <path class="st2" d="M19.5,5.7l0.6-1.5l0.1,0.1v0.9c0,0.2,0,0.4,0,0.5l0,0c0.1-0.2,0.1-0.4,0.2-0.6l0.3-0.6h0.1L20.1,6H20V5.1
			c0-0.2,0-0.4,0-0.6l0,0c-0.1,0.2-0.1,0.4-0.2,0.6L19.5,5.7L19.5,5.7z"/>
            <path class="st2" d="M21.3,4.8l0.1,0.1L21,5.6l0,0c0.1,0,0.1-0.1,0.1-0.1L21.8,5l0.1,0.1l-0.6,0.4l-0.1,1L21,6.4l0.1-0.8L21,5.7
			l-0.3,0.5l-0.1-0.1L21.3,4.8z"/>
            <path class="st2" d="M21.2,6.5l0.9-1.4l0.1,0.1L22,6.1c0,0.2-0.1,0.4-0.1,0.5l0,0C22,6.4,22.1,6.2,22.2,6l0.4-0.6l0.1,0.1
			l-0.9,1.4l-0.1-0.1L21.9,6c0-0.2,0.1-0.4,0.1-0.5l0,0c-0.1,0.2-0.2,0.3-0.3,0.6L21.2,6.5L21.2,6.5z"/>
            <path class="st2" d="M22.3,7.3c-0.2-0.2-0.1-0.5,0.2-0.9C22.7,6,23.1,5.8,23.3,6c0.2,0.2,0.1,0.5-0.2,0.9
			C22.8,7.3,22.5,7.4,22.3,7.3L22.3,7.3z M22.4,7.2c0.2,0.1,0.4-0.1,0.6-0.3c0.2-0.3,0.3-0.6,0.2-0.7c-0.2-0.2-0.5,0-0.7,0.3
			C22.3,6.7,22.2,7,22.4,7.2L22.4,7.2z"/>
            <path class="st2" d="M22.9,7.7l0.9-1.3l0.1,0.1l-0.5,0.7c-0.1,0.2-0.2,0.3-0.3,0.5l0,0c0.1-0.1,0.3-0.2,0.4-0.4l0.6-0.5l0.1,0.1
			l-0.5,0.7c-0.1,0.2-0.2,0.3-0.3,0.4l0,0c0.1-0.1,0.3-0.2,0.4-0.4l0.6-0.5l0.1,0.1l-1.3,1l-0.1-0.1l0.5-0.7C23.8,7.2,23.9,7.1,24,7
			l0,0c-0.1,0.1-0.2,0.2-0.4,0.3L22.9,7.7L22.9,7.7z"/>
            <path class="st2" d="M24.8,7.4L24.8,7.4l-1,1.1l0.3,0.3H24l-0.4-0.4L24.8,7.4z"/>
            <path class="st2" d="M24.9,8.8l-0.2-0.3l-0.5,0.4l0.3,0.3l-0.1,0.1L24,8.9l1.3-1l0.3,0.4l-0.1,0.1l-0.2-0.3l-0.4,0.3l0.2,0.3
			L24.9,8.8z"/>
            <path class="st2" d="M25.8,8.6c0.1,0.1,0.1,0.1,0.2,0.2c0,0.1,0.1,0.2,0,0.4c-0.1,0.1-0.2,0.3-0.4,0.4c-0.2,0.1-0.4,0.2-0.6,0.2
			s-0.3-0.1-0.4-0.2c0-0.1-0.1-0.1-0.1-0.2L25.8,8.6z M24.7,9.5c0,0,0,0.1,0.1,0.1c0.1,0.2,0.4,0.2,0.8-0.1C25.9,9.3,26,9,25.9,8.8
			c0-0.1-0.1-0.1-0.1-0.1L24.7,9.5z"/>
            <path class="st2" d="M25.4,10.8c-0.1,0-0.2-0.1-0.2-0.2c-0.1-0.1-0.1-0.3,0-0.4c0.1-0.1,0.2-0.3,0.5-0.4c0.4-0.2,0.8-0.2,1,0
			c0.1,0.1,0.1,0.2,0.1,0.2l-0.2,0.1c0-0.1,0-0.1,0-0.2c-0.1-0.2-0.4-0.2-0.7,0c-0.4,0.2-0.5,0.4-0.4,0.6c0,0.1,0.1,0.1,0.1,0.1
			l0.4-0.2l-0.1-0.2l0.1-0.1l0.2,0.3L25.4,10.8z"/>
            <path class="st2" d="M26.3,11.1l-0.2-0.3L25.6,11l0.2,0.4l-0.2,0.1L25.4,11l1.4-0.7l0.2,0.5l-0.2,0.1l-0.2-0.3l-0.5,0.2L26.3,11.1
			L26.3,11.1z"/>
	</g>
        <g>
		<path class="st11" d="M4.5,22.2c-0.1,0.1-0.2,0-0.3-0.1l-0.3-0.7c-0.1-0.1,0-0.2,0.1-0.3l0.5-0.2l0.2,0.3l-0.4,0.2l0.2,0.4
			l0.4-0.2L5,20.7c0-0.1,0.1-0.1,0.1-0.1l0.4-0.2c0.1-0.1,0.2,0,0.3,0.1l0.3,0.7c0.1,0.1,0,0.2-0.1,0.3l-0.4,0.2l-0.2-0.3l0.4-0.2
			l-0.2-0.4L5.3,21l-0.2,0.9C5.1,22,5,22,5,22.1L4.5,22.2z"/>
            <path class="st11" d="M5.5,23.6c-0.1,0.1-0.2,0-0.3-0.1l-0.5-0.7c-0.1-0.1-0.1-0.2,0-0.3l1.4-1c0.1-0.1,0.2,0,0.3,0.1L7,22.3
			c0.1,0.1,0.1,0.2,0,0.3L5.5,23.6z M5.3,23.2l1.3-0.9l-0.3-0.4L5,22.8L5.3,23.2z"/>
            <path class="st11" d="M6.6,24.9c-0.1,0.1-0.2,0.1-0.3,0l-0.5-0.6c-0.1-0.1-0.1-0.2,0-0.3l1.4-1.3L7.5,23l-1.4,1.2l0.3,0.4l1.4-1.2
			L8,23.6L6.6,24.9z"/>
            <path class="st11" d="M8.8,24.7l-0.3-0.3l-1.2,1.4L7,25.5l1.2-1.4l-0.3-0.3l0.2-0.2L9,24.5L8.8,24.7z"/>
            <path class="st11"
                  d="M9,27l-0.3-0.2L9.2,26l-0.4-0.3l-0.5,0.8L8,26.3l1.2-1.8l0.3,0.2L9,25.4l0.4,0.3L9.8,25l0.3,0.2L9,27z"/>
            <path class="st11" d="M10.3,27.7l-0.9-0.5l1-1.9l0.9,0.5l-0.1,0.3l-0.6-0.3l-0.3,0.6l0.5,0.3l-0.1,0.2l-0.5-0.3l-0.3,0.6l0.6,0.3
			L10.3,27.7z"/>
            <path class="st11" d="M11.9,28.3l-0.4-0.1l0.1-0.4l-0.4-0.2L11,28l-0.4-0.1l0,0l1.2-1.8l0.4,0.1L11.9,28.3z M11.7,27.5l0.2-1
			l-0.5,0.8L11.7,27.5z"/>
            <path class="st11" d="M13.5,28.5c0,0.1-0.1,0.2-0.3,0.1l-0.7-0.2c-0.1,0-0.2-0.1-0.2-0.2l0.1-0.5l0.4,0.1l-0.1,0.4l0.5,0.1
			l0.1-0.4l-0.6-0.7c0-0.1-0.1-0.1,0-0.2l0.1-0.5c0-0.1,0.1-0.2,0.3-0.1l0.7,0.2c0.1,0,0.2,0.1,0.2,0.2l-0.1,0.5l-0.4-0.1l0.1-0.4
			L13,26.7L12.9,27l0.6,0.7c0,0.1,0.1,0.1,0,0.2V28.5z"/>
            <path class="st11" d="M15.2,27h-0.4l-0.2,1.8h-0.4l0.2-1.8H14v-0.3l1.2,0.1L15.2,27z"/>
            <path class="st11" d="M17.4,28.5c0,0.1-0.1,0.2-0.2,0.2l-0.8,0.1c-0.2,0-0.2,0-0.2-0.2L16,26.7h0.4l0.2,1.8h0.5l-0.2-1.8h0.4
			L17.4,28.5z"/>
            <path class="st11" d="M19.2,28.3l-0.3,0.1L18,27.3c0,0.1,0.1,0.1,0.1,0.1l0.3,1.2L18,28.7l-0.5-2.1l0.3-0.1l0.9,1.1
			c0-0.1-0.1-0.1-0.1-0.1l-0.3-1.1l0.4-0.1L19.2,28.3z"/>
            <path class="st11" d="M20,28.1l-0.4,0.1l-0.7-2l0.4-0.1L20,28.1z"/>
            <path class="st11" d="M20.7,25.4l0.4,2.1l-0.3,0.2L19.5,26l0.3-0.2l0.9,1.2c0,0,0,0.1,0.1,0.2c0,0,0-0.1-0.1-0.2l-0.4-1.4
			L20.7,25.4z"/>
            <path class="st11" d="M22.8,26.6l-0.9,0.6l-1.1-1.8l0.9-0.5l0.1,0.2l-0.6,0.3l0.3,0.5l0.5-0.3l0.1,0.2l-0.5,0.3l0.3,0.6l0.6-0.4
			L22.8,26.6z"/>
            <path class="st11" d="M24.2,25.6l-0.3,0.2L23,25.3l-0.1-0.1l0.3-0.2l-0.4-0.5l-0.4,0.3l1.2,1.4l-0.3,0.2L22,24.7l0.8-0.6
			c0.1-0.1,0.2-0.1,0.3,0l0.5,0.6c0.1,0.1,0.1,0.1,0,0.2c0,0-0.1,0.1-0.2,0.2L24.2,25.6z"/>
            <path class="st11" d="M25.1,24.3c0.1,0.1,0.1,0.2,0,0.3l-0.5,0.5c-0.1,0.1-0.2,0.1-0.3,0l-0.4-0.4l0.3-0.3l0.3,0.3l0.3-0.3
			l-0.3-0.3l-1,0.1c-0.1,0-0.1,0-0.2-0.1L23.1,24c-0.1-0.1-0.1-0.2,0-0.3l0.5-0.5c0.1-0.1,0.2-0.1,0.3,0l0.3,0.3L24,23.7l-0.3-0.3
			l-0.3,0.3l0.3,0.3l1-0.1c0.1,0,0.1,0,0.2,0.1L25.1,24.3z"/>
            <path class="st11" d="M25.8,23.8l-0.2,0.3l-1.7-1.3l0.2-0.3L25.8,23.8z"/>
            <path class="st11" d="M25.2,21.5L25,21.8l1.5,1l-0.2,0.3l-1.5-1l-0.2,0.3l-0.2-0.2l0.7-1L25.2,21.5z"/>
            <path class="st11" d="M25.6,20.1l0.6,0.7c0.1,0.1,0.2,0.2,0.3,0.3l0.7,0.3L27,21.7l-0.7-0.3c-0.1,0-0.1,0-0.2,0s-0.2,0-0.2,0
			L25,21.3l0,0l0.2-0.3l1,0.1l-0.7-0.7L25.6,20.1L25.6,20.1z"/>
	</g>
</g>
    <g>
	<path class="st12" d="M40.8,22.9c0,1-0.5,1.5-1.4,1.5h-4.7c-0.9,0-1.4-0.5-1.4-1.5v-3.9h2.3v3.3h2.9v-3.2l-4.7-4.6
		c-0.3-0.3-0.5-0.8-0.5-1.3V9.7c0-1,0.5-1.5,1.4-1.5h4.7c0.9,0,1.4,0.5,1.4,1.5v3.6h-2.3v-3.1h-2.9v2.9l4.7,4.6
		c0.3,0.3,0.5,0.8,0.5,1.3V22.9z"/>
        <path class="st12" d="M49.2,24.4h-6.5V8.2h6.4v2.1H45v4.7h3.5v2.1H45v5.1h4.2V24.4z"/>
        <path class="st12" d="M58.6,22.9c0,1-0.5,1.5-1.4,1.5h-5c-0.9,0-1.4-0.5-1.4-1.5V8.2h2.3v14.1h3.2V8.2h2.3V22.9z"/>
        <path class="st12" d="M72.6,22.9c0,1-0.5,1.5-1.4,1.5h-5c-1,0-1.4-0.5-1.4-1.5V8.2h2.3v14.1h3.2V8.2h2.3V22.9z"/>
        <path class="st12" d="M84,24.4h-2.3v-8c0-0.4,0-1,0.1-1.8l-2,8.3h-1.2l-2-8.3c0.1,0.8,0.1,1.4,0.1,1.8v8h-2.3V8.2h2.2l2.5,9
		c0,0.1,0,0.3,0.1,0.7c0-0.2,0-0.4,0.1-0.7l2.5-9H84V24.4z"/>
        <path class="st12" d="M93.4,22.9c0,1-0.5,1.5-1.4,1.5h-4.7c-0.9,0-1.4-0.5-1.4-1.5v-3.9h2.3v3.3H91v-3.2l-4.7-4.6
		c-0.3-0.3-0.5-0.8-0.5-1.3V9.7c0-1,0.5-1.5,1.4-1.5H92c1,0,1.4,0.5,1.4,1.5v3.6H91v-3.1h-2.9v2.9l4.7,4.6c0.3,0.3,0.5,0.8,0.5,1.3
		V22.9z"/>
</g>
</svg>
